<?xml version="1.0" encoding="utf-8"?>
<!-- Generator: Adobe Illustrator 18.0.0, SVG Export Plug-In . SVG Version: 6.00 Build 0)  -->
<!DOCTYPE svg PUBLIC "-//W3C//DTD SVG 1.1//EN" "http://www.w3.org/Graphics/SVG/1.1/DTD/svg11.dtd">
<svg version="1.1" id="Layer_1" xmlns="http://www.w3.org/2000/svg" xmlns:xlink="http://www.w3.org/1999/xlink" x="0px" y="0px"
	 viewBox="0 0 617.4 769.8" enable-background="new 0 0 617.4 769.8" xml:space="preserve">
<path fill="none" stroke="#00A99D" stroke-width="3" stroke-miterlimit="10" d="M313.1,725.4l7.6-6.9c1.6-1.5,4.2-0.6,4.6,1.5
	l0.1,0.4c0.8,3.6-0.6,7.4-3.6,9.7l-8.6,6.6"/>
<g>
	<path fill="none" stroke="#00A99D" stroke-width="3" stroke-miterlimit="10" d="M378.3,262.8c-0.4-0.1-0.8-0.1-1.2-0.2"/>
	<path fill="none" stroke="#00A99D" stroke-width="3" stroke-miterlimit="10" d="M361.5,220.9c4.8-6.2,12.3-10.2,20.8-10.2
		c14.5,0,26.2,11.7,26.2,26.2c0,2.5-0.3,4.8-1,7.1"/>
	<path fill="none" stroke="#00A99D" stroke-width="3" stroke-miterlimit="10" d="M361,221.6c0.2-0.2,0.3-0.5,0.5-0.7"/>
	<path fill="none" stroke="#00A99D" stroke-width="3" stroke-miterlimit="10" d="M361,221.6"/>
	<path fill="none" stroke="#00A99D" stroke-width="3" stroke-miterlimit="10" d="M377.1,262.6c-12-2.4-21.1-13-21.1-25.7
		c0-3.7,0.8-7.3,2.2-10.5"/>
</g>
<g>
	<path fill="none" stroke="#00A99D" stroke-width="3" stroke-miterlimit="10" d="M477.8,611.4V700c0,5,2,10.3,6.4,12.8
		c6,3.3,13.8,2,17.4-7.8"/>
</g>
<g>
	<path fill="none" stroke="#00A99D" stroke-width="3" stroke-miterlimit="10" d="M486.9,611.4v65.2c0,5,2,10.3,6.4,12.8
		c6,3.3,13.8,2,17.4-7.8"/>
</g>
<path fill="none" stroke="#00A99D" stroke-width="3" stroke-miterlimit="10" d="M317.7,231.2c7.1-7.8,17.4-12.7,28.8-12.7
	c12.8,0,24.1,6.1,31.3,15.6"/>
<path fill="none" stroke="#00A99D" stroke-width="3" stroke-miterlimit="10" d="M365.2,292c-5.5,3-11.9,4.7-18.7,4.7
	c-10.2,0-19.6-3.9-26.5-10.4"/>
<path fill="none" stroke="#00A99D" stroke-width="3" stroke-miterlimit="10" d="M377.8,234.1c4.2,5.6,7,12.3,7.7,19.7"/>
<path fill="none" stroke="#00A99D" stroke-width="3" stroke-miterlimit="10" d="M366.2,283.1"/>
<path fill="none" stroke="#00A99D" stroke-width="3" stroke-miterlimit="10" d="M357.8,227.4c12.2,4.6,21,16.4,21,30.2
	c0,0.9,0,1.7-0.1,2.5"/>
<path fill="none" stroke="#00A99D" stroke-width="3" stroke-miterlimit="10" d="M319.8,239.6c5.8-8.6,15.6-14.2,26.7-14.2
	c4,0,7.8,0.7,11.3,2"/>
<path fill="none" stroke="#00A99D" stroke-width="3" stroke-miterlimit="10" d="M366.2,283.1c-5.5,4.2-12.3,6.7-19.7,6.7
	c-10.8,0-20.4-5.3-26.2-13.5"/>
<path fill="none" stroke="#00A99D" stroke-width="3" stroke-miterlimit="10" d="M216,285.5h-47.4c-5.5,0-10.5,2.2-14.1,5.9
	c-3.6,3.6-5.9,8.3-5.9,13.8c0,2.7,0.5,5.3,1.5,7.3h-38.5c-7.9,0-15.3,3.4-20.5,8.6c-5.2,5.2-8.6,12.4-8.6,20.4h-6.9c-4.7,0-9,2-12,5
	c-3.1,3.1-5,8-5,12H32.8c-4.7,0-8.9,2.1-12,5.2c-3.1,3.1-5,7.3-5,11.9c0,9.3,7.6,16.9,17,16.9H45c0,10,7.6,17,17,17h37.4
	c-2.5,4-4,9.1-4,14.4c0,15.8,12.9,28.6,28.7,28.6H140"/>
<path fill="none" stroke="#00A99D" stroke-width="3" stroke-miterlimit="10" d="M280.1,195.7c0.6-12.3,10.8-22.1,23.3-22.1
	c12.9,0,23.4,10.5,23.4,23.4c0,9.7-5.9,18-14.3,21.5"/>
<path fill="none" stroke="#00A99D" stroke-width="3" stroke-miterlimit="10" d="M215,313.8v-68.2c0-28.9,23.4-52.4,52.4-52.4h0
	c28.9,0,52.4,23.4,52.4,52.4v167.7"/>
<line fill="none" stroke="#00A99D" stroke-width="3" stroke-miterlimit="10" x1="215" y1="299.5" x2="320" y2="299.5"/>
<line fill="none" stroke="#00A99D" stroke-width="3" stroke-miterlimit="10" x1="215" y1="312.5" x2="320" y2="312.5"/>
<path fill="none" stroke="#00A99D" stroke-width="3" stroke-miterlimit="10" d="M216,237.5c0,0,37,12.8,103,0"/>
<g>
	<path fill="none" stroke="#00A99D" stroke-width="3" stroke-miterlimit="10" d="M257.3,262.9c0-5.6-11.3-10.1-25.3-10.1"/>
	<path fill="none" stroke="#00A99D" stroke-width="3" stroke-miterlimit="10" d="M237.2,252.7c0,0-4.3-2-4.3-4.7"/>
</g>
<g>
	<path fill="none" stroke="#00A99D" stroke-width="3" stroke-miterlimit="10" d="M275.1,262.9c0-5.6,11.3-10.1,25.3-10.1"/>
	<path fill="none" stroke="#00A99D" stroke-width="3" stroke-miterlimit="10" d="M295.5,252.7c0,0,4.3-2,4.3-4.7"/>
</g>
<path fill="none" stroke="#00A99D" stroke-width="3" stroke-miterlimit="10" d="M256.3,279.4c5,5.1,13.2,5.2,18.3,0.2"/>
<line fill="none" stroke="#00A99D" stroke-width="3" stroke-miterlimit="10" x1="243.8" y1="334.5" x2="279.1" y2="353.5"/>
<line fill="none" stroke="#00A99D" stroke-width="3" stroke-miterlimit="10" x1="306.2" y1="351.4" x2="232" y2="312.3"/>
<line fill="none" stroke="#00A99D" stroke-width="3" stroke-miterlimit="10" x1="309.9" y1="415.5" x2="307.8" y2="389.2"/>
<polyline fill="none" stroke="#00A99D" stroke-width="3" stroke-miterlimit="10" points="288.7,388.5 282.6,423.5 299,423.5 "/>
<polyline fill="none" stroke="#00A99D" stroke-width="3" stroke-miterlimit="10" points="266.8,330.7 293.2,312.5 313.9,312.5 
	281.3,338.4 "/>
<line fill="none" stroke="#00A99D" stroke-width="3" stroke-miterlimit="10" x1="319.5" y1="389.6" x2="262.7" y2="388.1"/>
<line fill="none" stroke="#00A99D" stroke-width="3" stroke-miterlimit="10" x1="256.6" y1="355.1" x2="319.5" y2="350.7"/>
<path fill="none" stroke="#00A99D" stroke-width="3" stroke-miterlimit="10" d="M300,423.3c-2.2,3.1-3.4,6.8-3.4,10.9
	c0,2.7,0.5,5.3,1.5,7.3h-38.5c-4.9,0-9.7,1.3-13.8,3.5"/>
<path fill="none" stroke="#00A99D" stroke-width="3" stroke-miterlimit="10" d="M365,414.5h-48.4c-5.5,0-10.5,2.2-14.1,5.9
	c-0.9,0.9-1.7,1.9-2.5,2.9"/>
<path fill="none" stroke="#00A99D" stroke-width="3" stroke-miterlimit="10" d="M514,546.5h15.7c7.9,0,15.1-3.3,20.3-8.5
	c5.2-5.2,8.4-12.7,8.4-20.6c0-15.8-12.9-28.9-28.7-28.9h-35.7c4-5,10.6-37-7.4-54.5"/>
<path fill="none" stroke="#00A99D" stroke-width="3" stroke-miterlimit="10" d="M508.8,567.4c2.5-4.2,4-9.1,4-14.4
	c0-2.3-0.2-4.6-0.7-6.6H512c-1.1-4-3.1-8.3-5.9-11.6c2.8,3.3,4.8,7.1,5.9,11.4c0,0.1,0,0.2,0.1,0.2h1.9"/>
<line fill="none" stroke="#00A99D" stroke-width="3" stroke-miterlimit="10" x1="284" y1="581.5" x2="331" y2="581.5"/>
<path fill="none" stroke="#00A99D" stroke-width="3" stroke-miterlimit="10" d="M471.2,307.7c1.5,6.2,4.4,12.2,7.7,17.6
	c6.7,10.9,10.6,23.8,10.6,37.6c0,9.7-1.2,18-4.6,26.5"/>
<path fill="none" stroke="#00A99D" stroke-width="3" stroke-miterlimit="10" d="M364.9,411.4c-11.4-12.4-18.5-28.8-18.9-46.7
	c-0.3-13.4,3-26,9.1-36.8c5.5-9.9,8.9-20.8,9.2-32.1c0-0.4,0-0.7,0-1.1"/>
<line fill="none" stroke="#00A99D" stroke-width="3" stroke-miterlimit="10" x1="365.3" y1="476.8" x2="365.3" y2="358.5"/>
<path fill="none" stroke="#00A99D" stroke-width="3" stroke-miterlimit="10" d="M470.1,413.7"/>
<path fill="none" stroke="#00A99D" stroke-width="3" stroke-miterlimit="10" d="M470.1,400.8"/>
<path fill="none" stroke="#00A99D" stroke-width="3" stroke-miterlimit="10" d="M365.3,358.5v-63.6c0-28.9,23.4-52.4,52.4-52.4h0
	c28.9,0,52.4,23.4,52.4,52.4v93.5"/>
<line fill="none" stroke="#00A99D" stroke-width="3" stroke-miterlimit="10" x1="366.8" y1="348.5" x2="470" y2="348.5"/>
<line fill="none" stroke="#00A99D" stroke-width="3" stroke-miterlimit="10" x1="367" y1="361.5" x2="470" y2="361.5"/>
<path fill="none" stroke="#00A99D" stroke-width="3" stroke-miterlimit="10" d="M363.7,298.6c56-9.5,73.2-35.1,73.2-35.1
	s1.3,16.8,33.6,37.6"/>
<path fill="none" stroke="#00A99D" stroke-width="3" stroke-miterlimit="10" d="M388.2,306.6c0-6.1,4.9-11.1,11-11.1H399
	c6.1,0,11,4.9,11,11"/>
<path fill="none" stroke="#00A99D" stroke-width="3" stroke-miterlimit="10" d="M426.2,306.6c0-6.1,4.9-11.1,11-11.1H437
	c6.1,0,11,4.9,11,11"/>
<path fill="none" stroke="#00A99D" stroke-width="3" stroke-miterlimit="10" d="M401.4,307.8c-0.4,0.6-1,1-1.8,1
	c-1.2,0-2.1-0.9-2.1-2.1s0.9-2.1,2.1-2.1c1.2,0,2.1,0.9,2.1,2.1C401.7,307.1,401.6,307.5,401.4,307.8"/>
<path fill="none" stroke="#00A99D" stroke-width="3" stroke-miterlimit="10" d="M438.3,308.1c-0.4,0.4-1,0.7-1.6,0.7
	c-1.2,0-2.1-0.9-2.1-2.1s0.9-2.1,2.1-2.1s2.1,0.9,2.1,2.1C438.9,307.2,438.7,307.7,438.3,308.1"/>
<path fill="none" stroke="#00A99D" stroke-width="3" stroke-miterlimit="10" d="M384.3,316.3c0.8-0.1,1.6-0.2,2.5-0.2"/>
<path fill="none" stroke="#00A99D" stroke-width="3" stroke-miterlimit="10" d="M386.8,316.1c4.8,0,8.7,2.5,8.7,5.6
	c0,3.1-3.9,5.6-8.7,5.6s-8.7-2.5-8.7-5.6c0-2.5,2.6-4.7,6.3-5.4"/>
<path fill="none" stroke="#00A99D" stroke-width="3" stroke-miterlimit="10" d="M454.2,325.1c-1.5,0.9-3.5,1.4-5.7,1.4
	c-4.8,0-8.7-2.5-8.7-5.6s3.9-5.6,8.7-5.6c1.2,0,2.4,0.2,3.4,0.4"/>
<path fill="none" stroke="#00A99D" stroke-width="3" stroke-miterlimit="10" d="M451.8,315.7c3.1,0.8,5.3,2.8,5.3,5.2
	c0,1.7-1.2,3.2-3,4.2"/>
<path fill="none" stroke="#00A99D" stroke-width="3" stroke-miterlimit="10" d="M411,328.7c0,0,7.7,3.8,13.5,0"/>
<path fill="none" stroke="#00A99D" stroke-width="3" stroke-miterlimit="10" d="M420.5,381.1h-9.6c-5.6,0-10.1-4.6-10.1-10.1v-8.2"
	/>
<path fill="none" stroke="#00A99D" stroke-width="3" stroke-miterlimit="10" d="M420.5,381.1h4.3c5.6,0,10.1-4.6,10.1-10.1v-3.2
	v-4.6"/>
<path fill="none" stroke="#00A99D" stroke-width="3" stroke-miterlimit="10" d="M140.4,419.4c-10.7-6.2-17.2-17-17.2-35.6
	c0-10.4,2-20.2,5.6-29.2c10.6-26.4,35.2-44.9,63.8-44.9c28.8,0,53.4,18.7,64,45.3c3.5,8.9,5.4,18.6,5.4,28.8
	c0,17.9-5.8,28.6-15.6,34.9"/>
<path fill="none" stroke="#00A99D" stroke-width="3" stroke-miterlimit="10" d="M140.9,480.8"/>
<path fill="none" stroke="#00A99D" stroke-width="3" stroke-miterlimit="10" d="M245.6,366c0,0.7,0,1.5,0,2.3v126.5"/>
<path fill="none" stroke="#00A99D" stroke-width="3" stroke-miterlimit="10" d="M141.3,458.2l-0.4-91.9"/>
<line fill="none" stroke="#00A99D" stroke-width="3" stroke-miterlimit="10" x1="141" y1="422.5" x2="246" y2="422.5"/>
<line fill="none" stroke="#00A99D" stroke-width="3" stroke-miterlimit="10" x1="141" y1="434.5" x2="246" y2="434.5"/>
<path fill="none" stroke="#00A99D" stroke-width="3" stroke-miterlimit="10" d="M249,364.2c-15,10.6-39.7-1.3-56.4-1.4
	c-19.1,0-42.3,12.6-56.5,1.6"/>
<path fill="none" stroke="#00A99D" stroke-width="3" stroke-miterlimit="10" d="M128.8,354.6c10.6-26.4,35.2-44.9,63.8-44.9
	c28.8,0,53.4,18.7,64,45.3"/>
<path fill="none" stroke="#00A99D" stroke-width="3" stroke-miterlimit="10" d="M160.4,384.4c0-6.1,4.9-10.9,11-10.9h-0.2
	c6.1,0,11,4.9,11,10.9"/>
<path fill="none" stroke="#00A99D" stroke-width="3" stroke-miterlimit="10" d="M198.4,384.4c0-6.1,4.9-10.9,11-10.9h-0.2
	c6.1,0,11,4.9,11,10.9"/>
<path fill="none" stroke="#00A99D" stroke-width="3" stroke-miterlimit="10" d="M173.3,385.8c-0.4,0.4-0.9,0.6-1.5,0.6
	c-1.2,0-2.1-0.9-2.1-2.1c0-1.2,0.9-2.1,2.1-2.1c1.2,0,2.1,0.9,2.1,2.1C173.9,384.9,173.6,385.4,173.3,385.8"/>
<path fill="none" stroke="#00A99D" stroke-width="3" stroke-miterlimit="10" d="M210.4,385.8c-0.4,0.4-0.9,0.6-1.5,0.6
	c-1.2,0-2.1-0.9-2.1-2.1c0-1.2,0.9-2.1,2.1-2.1c1.2,0,2.1,0.9,2.1,2.1C211,384.9,210.8,385.4,210.4,385.8"/>
<path fill="none" stroke="#00A99D" stroke-width="3" stroke-miterlimit="10" d="M176.1,406.4c8.2,8.2,21.5,8.2,29.7,0"/>
<path fill="none" stroke="#00A99D" stroke-width="3" stroke-miterlimit="10" d="M201.5,568"/>
<line fill="none" stroke="#00A99D" stroke-width="3" stroke-miterlimit="10" x1="201.5" y1="435" x2="201.5" y2="503"/>
<path fill="none" stroke="#00A99D" stroke-width="3" stroke-miterlimit="10" d="M186.8,459c-0.9,0.7-2,1.1-3.1,1.1"/>
<path fill="none" stroke="#00A99D" stroke-width="3" stroke-miterlimit="10" d="M183.7,460.1c-2.8,0-5.2-2.3-5.2-5.2
	c0-2.8,2.3-5.2,5.2-5.2s5.2,2.3,5.2,5.2c0,1.7-0.8,3.1-2,4.1"/>
<path fill="none" stroke="#00A99D" stroke-width="3" stroke-miterlimit="10" d="M179.2,483.4c-0.4-0.8-0.7-1.6-0.7-2.5
	c0-2.8,2.3-5.2,5.2-5.2s5.2,2.3,5.2,5.2c0,2.8-2.3,5.2-5.2,5.2"/>
<path fill="none" stroke="#00A99D" stroke-width="3" stroke-miterlimit="10" d="M183.7,486c-1.9,0-3.6-1.1-4.5-2.6"/>
<path fill="none" stroke="#00A99D" stroke-width="3" stroke-miterlimit="10" d="M181.7,502.7c0.6-0.3,1.3-0.4,2-0.4
	c2.8,0,5.2,2.3,5.2,5.2s-2.3,5.2-5.2,5.2"/>
<path fill="none" stroke="#00A99D" stroke-width="3" stroke-miterlimit="10" d="M183.7,512.6c-2.8,0-5.2-2.3-5.2-5.2
	c0-2.1,1.3-4,3.1-4.8"/>
<path fill="none" stroke="#00A99D" stroke-width="3" stroke-miterlimit="10" d="M227.5,449.2c3.6,0.5,6.4,1.6,6.4,3.4v9.5
	c0,4.9-4,8.9-8.9,8.9h-2.6c-4.9,0-8.9-4-8.9-8.9v-9.5C213.6,449.6,221.5,448.4,227.5,449.2"/>
<path fill="none" stroke="#00A99D" stroke-width="3" stroke-miterlimit="10" d="M330.1,576.6c-6.2-0.9-11-6.3-11-12.7
	c0-3.7,1.5-6.9,4-9.3"/>
<path fill="none" stroke="#00A99D" stroke-width="3" stroke-miterlimit="10" d="M438.2,551c4.7,1.9,8,6.5,8,11.9
	c0,6.3-4.6,11.6-10.6,12.7"/>
<path fill="none" stroke="#00A99D" stroke-width="3" stroke-miterlimit="10" d="M342,745.2L342,745.2c-6.2,0-11.3-5.1-11.3-11.3
	V560.7"/>
<path fill="none" stroke="#00A99D" stroke-width="3" stroke-miterlimit="10" d="M435.4,635.3v99.5c0,5.8-4.7,10.4-10.4,10.4l0,0"/>
<line fill="none" stroke="#00A99D" stroke-width="3" stroke-miterlimit="10" x1="435.4" y1="557.6" x2="435.4" y2="635.3"/>
<path fill="none" stroke="#00A99D" stroke-width="3" stroke-miterlimit="10" d="M395.3,567.6v3.4c0,5.6-4.6,10.1-10.1,10.1h-5.5
	c-5.6,0-10.1-4.6-10.1-10.1v-2.9"/>
<line fill="none" stroke="#00A99D" stroke-width="3" stroke-miterlimit="10" x1="395.3" y1="566.2" x2="395.3" y2="567.6"/>
<path fill="none" stroke="#00A99D" stroke-width="3" stroke-miterlimit="10" d="M376.1,555.8c1.1-0.4,2.4-0.7,3.6-0.7h5.5
	c2.3,0,4.5,0.8,6.2,2.1"/>
<path fill="none" stroke="#00A99D" stroke-width="3" stroke-miterlimit="10" d="M374.2,551.1c2-2.8,5.3-4.6,9-4.6H383
	c3.8,0,7.2,1.9,9.1,4.9"/>
<path fill="none" stroke="#00A99D" stroke-width="3" stroke-miterlimit="10" d="M364.6,545.1c6.2,0.8,11.1,6.1,11.1,12.5
	c0,4.7-2.6,8.8-6.4,11"/>
<path fill="none" stroke="#00A99D" stroke-width="3" stroke-miterlimit="10" d="M369.3,568.6c-1.8,1-4,1.6-6.2,1.6
	c-7,0-12.6-5.7-12.6-12.6c0-4.7,2.6-8.9,6.5-11"/>
<path fill="none" stroke="#00A99D" stroke-width="3" stroke-miterlimit="10" d="M414.7,563.6c-1.4,2.5-3.6,4.6-6.2,5.7"/>
<path fill="none" stroke="#00A99D" stroke-width="3" stroke-miterlimit="10" d="M408.5,569.2c-1.5,0.6-3.2,1-4.9,1
	c-7,0-12.6-5.7-12.6-12.6s5.7-12.6,12.6-12.6c7,0,12.6,5.7,12.6,12.6c0,2.1-0.5,4.2-1.5,5.9"/>
<path fill="none" stroke="#00A99D" stroke-width="3" stroke-miterlimit="10" d="M426.3,499.1c-3.7-7.4-11.3-12.6-20.2-12.8
	c-3.5-2-7.5-3.2-11.8-3.2c-0.8,0-1.6,0-2.4,0.1c-2.8-4.4-7.6-7.3-13.2-7.3c-3.8,0-7.3,1.4-10,3.7c-2.4-2.7-6-4.4-9.9-4.4
	c-7.2,0-13.1,5.9-13.1,13.1c0,0.7,0.1,1.4,0.2,2.1c-0.1,0-0.1,0-0.2,0c-7.3,0-13.3,6-13.3,13.3c0,3.3,1.2,6.2,3.1,8.5
	c0,0,0.1,0,0.1,0c0,0,0.1,0,0.1,0c0.1,0,0.2,0,0.2,0c-0.1,0-0.1,0-0.1,0c0,0-0.2,0-0.2,0c-9.2,1.7-16.4,9.7-16.4,19.4
	c0,2.6,0.2,5,1.2,7.3v0c0,0,0.1,0.1,0.1,0.1c0,0,0,0,0,0c-0.8,1.7-1.3,3.7-1.3,5.8c0,7.3,5.9,13.2,13.2,13.2c5.2,0,9.7-3,11.9-7.4
	c2.9-0.8,5.5-2.3,7.7-4.3c0,0,0,0,0.1-0.1c0.1,0,0.1,0,0.2,0.1c1.5,0.4,3.1,0.7,4.8,0.7c5.4,0,10.2-2.4,13.4-6.3c0.1,0,0.2,0,0.3,0
	c8.2,0,15.4-4.5,19.1-11.2c1.4,0.3,2.8,0.4,4.3,0.4c0.2,0,0.5,0,0.7,0c2.8-0.1,5.6-0.7,8.1-1.7c-0.4,1.3-0.8,2.6-0.9,4
	c-0.1,0.5-0.1,1.1-0.1,1.6c0,4.2,1.6,8.1,4.1,11.1"/>
<path fill="none" stroke="#00A99D" stroke-width="3" stroke-miterlimit="10" d="M413.6,549.9c1.7,0.6,3.6,0.9,5.5,0.9
	c1.9,0,3.6-0.3,5.3-0.9c0,0,0,0,0,0c1.2,2.6,3.8,4.5,6.9,4.5c4.1,0,7.6-3.3,7.6-7.4c4.2,0,7.6-3.4,7.6-7.7c0-4.2-3.5-7.7-7.7-7.7
	c-1,0-2,0.2-2.9,0.6c-0.1-0.8-0.2-1.6-0.4-2.3c1.9-2.2,3-5,3-8.1c0-5.9-4.2-10.9-9.7-12.2c0-0.1,0-0.2,0-0.3c0-3.7-0.9-7.2-2.4-10.4
	"/>
<path fill="none" stroke="#00A99D" stroke-width="3" stroke-miterlimit="10" d="M364.1,560.2c-0.3,0.3-0.7,0.5-1.2,0.5
	c-1,0-1.7-0.8-1.7-1.7s0.8-1.7,1.7-1.7s1.7,0.8,1.7,1.7C364.6,559.4,364.4,559.9,364.1,560.2"/>
<path fill="none" stroke="#00A99D" stroke-width="3" stroke-miterlimit="10" d="M404.1,560.2c-0.3,0.3-0.7,0.5-1.2,0.5
	c-1,0-1.7-0.8-1.7-1.7s0.8-1.7,1.7-1.7s1.7,0.8,1.7,1.7C404.6,559.4,404.4,559.9,404.1,560.2"/>
<path fill="none" stroke="#00A99D" stroke-width="3" stroke-miterlimit="10" d="M339.4,578.2c0,6.5,9.9,11.8,22.2,11.8"/>
<line fill="none" stroke="#00A99D" stroke-width="3" stroke-miterlimit="10" x1="331" y1="599.5" x2="435" y2="599.5"/>
<line fill="none" stroke="#00A99D" stroke-width="3" stroke-miterlimit="10" x1="331" y1="612.5" x2="435" y2="612.5"/>
<path fill="none" stroke="#00A99D" stroke-width="3" stroke-miterlimit="10" d="M424.1,578.2c0,6.5-9.9,11.8-22.2,11.8"/>
<path fill="none" stroke="#00A99D" stroke-width="3" stroke-miterlimit="10" d="M344,694.7v-44.3c0-5.6,4.6-10.1,10.1-10.1h58.9
	c5.6,0,10.1,4.6,10.1,10.1v41.8"/>
<path fill="none" stroke="#00A99D" stroke-width="3" stroke-miterlimit="10" d="M423.2,692.3v54.5c0,5.6-4.6,10.1-10.1,10.1h-58.9
	c-5.6,0-10.1-4.6-10.1-10.1v-52"/>
<path fill="none" stroke="#00A99D" stroke-width="3" stroke-miterlimit="10" d="M391.8,742.5h-32c-4.5,0-8.2-3.7-8.2-8.2v-78
	c0-4.5,3.7-8.2,8.2-8.2h47.7c4.5,0,8.2,3.7,8.2,8.2V700"/>
<path fill="none" stroke="#00A99D" stroke-width="3" stroke-miterlimit="10" d="M415.7,700v34.3c0,4.5-3.7,8.2-8.2,8.2h-15.7"/>
<path fill="none" stroke="#00A99D" stroke-width="3" stroke-miterlimit="10" d="M164.5,672.9c-10.2,4.2-21.3,6.5-33,6.5
	c-47.8,0-86.5-38.7-86.5-86.5c0-47.8,38.7-86.5,86.5-86.5"/>
<path fill="none" stroke="#00A99D" stroke-width="3" stroke-miterlimit="10" d="M141,555.4"/>
<path fill="none" stroke="#00A99D" stroke-width="3" stroke-miterlimit="10" d="M56.4,633.8c0-34.5,58.1-78.1,106.8-91.6"/>
<path fill="none" stroke="#00A99D" stroke-width="3" stroke-miterlimit="10" d="M184.7,524.5c-0.4-0.3-0.9-0.7-1.4-0.9
	c-4.9-2.7-12.5-1.7-18.1,4c-6.3,6.4-1.7,12.5-1.4,17.6c0.7,11.1-8,16.4-8,16.4c5.9,4.3,16.5,0.2,24.1-5.6"/>
<path fill="none" stroke="#00A99D" stroke-width="3" stroke-miterlimit="10" d="M278.8,522.9c4.9-1.9,11.7-0.6,16.8,4.6
	c6.3,6.4,1.7,12.5,1.4,17.6c-0.7,11.1,8,16.4,8,16.4c-4.9,3.6-13.2,1.3-20.3-3"/>
<path fill="none" stroke="#00A99D" stroke-width="3" stroke-miterlimit="10" d="M179.6,603.2v-57.5c0-28.9,23.4-52.4,52.4-52.4h0
	c28.9,0,52.4,23.4,52.4,52.4v123"/>
<line fill="none" stroke="#00A99D" stroke-width="3" stroke-miterlimit="10" x1="180" y1="579.5" x2="284" y2="579.5"/>
<line fill="none" stroke="#00A99D" stroke-width="3" stroke-miterlimit="10" x1="180" y1="592.5" x2="284" y2="592.5"/>
<path fill="none" stroke="#00A99D" stroke-width="3" stroke-miterlimit="10" d="M179.6,537.2c0,0,54.3,4.5,73.6-39.4"/>
<path fill="none" stroke="#00A99D" stroke-width="3" stroke-miterlimit="10" d="M238.5,518.4c0,0,12.9,11,43.3,11"/>
<path fill="none" stroke="#00A99D" stroke-width="3" stroke-miterlimit="10" d="M200.7,556.3c0-6.1,4.9-10.8,11-10.8h-0.2
	c6.1,0,11,4.8,11,10.9"/>
<path fill="none" stroke="#00A99D" stroke-width="3" stroke-miterlimit="10" d="M238.7,556.3c0-6.1,4.9-10.8,11-10.8h-0.2
	c6.1,0,11,4.8,11,10.9"/>
<line fill="none" stroke="#00A99D" stroke-width="3" stroke-miterlimit="10" x1="486.6" y1="81.8" x2="498.2" y2="85.6"/>
<line fill="none" stroke="#00A99D" stroke-width="3" stroke-miterlimit="10" x1="431.7" y1="64" x2="444" y2="68"/>
<line fill="none" stroke="#00A99D" stroke-width="3" stroke-miterlimit="10" x1="440.9" y1="78.1" x2="428.7" y2="74.2"/>
<line fill="none" stroke="#00A99D" stroke-width="3" stroke-miterlimit="10" x1="495.4" y1="95.8" x2="483.7" y2="92"/>
<path fill="none" stroke="#00A99D" stroke-width="3" stroke-miterlimit="10" d="M385.7,23.9l44.8,14.5c4.9,1.6,7.7,6.9,6.1,11.9
	l-10.4,32c-0.2,0.5-0.3,0.9-0.6,1.4"/>
<path fill="none" stroke="#00A99D" stroke-width="3" stroke-miterlimit="10" d="M383.6,78.4l-45.4-14.7c-4.9-1.6-7.7-6.9-6.1-11.9
	l10.4-32c1.6-4.9,6.9-7.7,11.9-6.1l31.4,10.2"/>
<path fill="none" stroke="#00A99D" stroke-width="3" stroke-miterlimit="10" d="M425.7,83.7c-2.1,4.1-6.9,6.2-11.3,4.7l-30.8-10"/>
<path fill="none" stroke="#00A99D" stroke-width="3" stroke-miterlimit="10" d="M542,77.7l47.7,15.4c4.9,1.6,7.7,6.9,6.1,11.9
	l-6.4,19.6"/>
<path fill="none" stroke="#00A99D" stroke-width="3" stroke-miterlimit="10" d="M589.4,124.6l-4,12.4c-1.6,4.9-6.9,7.7-11.9,6.1
	l-76.2-24.7c-4.9-1.6-7.7-6.9-6.1-11.9l10.4-32c1.6-4.9,6.9-7.7,11.9-6.1l28.6,9.2"/>
<path fill="none" stroke="#00A99D" stroke-width="3" stroke-miterlimit="10" d="M490.9,70.8l-17.8,53.4c-1.6,4.9-7,7.6-11.9,6
	l-24.9-8.3c-4.9-1.6-7.6-7-6-11.9l10.5-31.5"/>
<line fill="none" stroke="#00A99D" stroke-width="3" stroke-miterlimit="10" x1="492.4" y1="66.3" x2="490.9" y2="70.8"/>
<path fill="none" stroke="#00A99D" stroke-width="3" stroke-miterlimit="10" d="M440.9,78.4l14.1-42.1c1.6-4.9,7-7.6,11.9-6
	l24.9,8.3c4.9,1.6,7.6,7,6,11.9l-5.2,15.7"/>
<line fill="none" stroke="#00A99D" stroke-width="3" stroke-miterlimit="10" x1="449.5" y1="104.9" x2="452" y2="105.7"/>
<path fill="none" stroke="#00A99D" stroke-width="3" stroke-miterlimit="10" d="M452,105.7l4.9,1.6c1.2,0.4,1.8,1.7,1.4,2.9l-1,3
	c-0.4,1.2-1.7,1.8-2.9,1.4l-13.1-4.4c-1.2-0.4-1.8-1.7-1.4-2.9l1-3c0.4-1.2,1.7-1.8,2.9-1.4l5.8,1.9"/>
<path fill="none" stroke="#00A99D" stroke-width="3" stroke-miterlimit="10" d="M453.6,101.1l-8.3-2.8c-1.2-0.4-1.8-1.7-1.4-2.9l1-3
	c0.4-1.2,1.7-1.8,2.9-1.4l9.5,3.2"/>
<path fill="none" stroke="#00A99D" stroke-width="3" stroke-miterlimit="10" d="M457.3,94.2l3.6,1.2c1.2,0.4,1.8,1.7,1.4,2.9l-1,3
	c-0.4,1.2-1.7,1.8-2.9,1.4l-4.8-1.6"/>
<path fill="none" stroke="#00A99D" stroke-width="3" stroke-miterlimit="10" d="M343.6,38.7l5-15.5c0.8-2.4,3.4-3.7,5.7-2.9
	l14.8,4.8c2.4,0.8,3.7,3.4,2.9,5.7l-7.9,24.4"/>
<path fill="none" stroke="#00A99D" stroke-width="3" stroke-miterlimit="10" d="M364.2,55.2l-1.3,4c-0.8,2.4-3.4,3.7-5.7,2.9
	l-14.8-4.8c-2.4-0.8-3.7-3.4-2.9-5.7l4.2-12.9"/>
<path fill="none" stroke="#00A99D" stroke-width="3" stroke-miterlimit="10" d="M392.3,66.5l-0.8,2.5c-0.8,2.4-3.4,3.7-5.7,2.9
	L371,67.2c-2.4-0.8-3.7-3.4-2.9-5.7l9.2-28.4c0.8-2.4,3.4-3.7,5.7-2.9l14.8,4.8c2.4,0.8,3.7,3.4,2.9,5.7L392.3,66.5"/>
<line fill="none" stroke="#00A99D" stroke-width="3" stroke-miterlimit="10" x1="427" y1="56.7" x2="421" y2="75"/>
<path fill="none" stroke="#00A99D" stroke-width="3" stroke-miterlimit="10" d="M421,75l-1,3.1c-0.8,2.4-3.4,3.7-5.7,2.9l-14.8-4.8
	c-2.4-0.8-3.7-3.4-2.9-5.7l9.2-28.4c0.8-2.4,3.4-3.7,5.7-2.9l14.8,4.8c2.4,0.8,3.7,3.4,2.9,5.7l-2.2,6.9"/>
<line fill="none" stroke="#00A99D" stroke-width="3" stroke-miterlimit="10" x1="525.7" y1="104.2" x2="523.2" y2="111.8"/>
<path fill="none" stroke="#00A99D" stroke-width="3" stroke-miterlimit="10" d="M523.2,111.8l-0.8,2.4c-0.8,2.4-3.4,3.7-5.7,2.9
	l-14.8-4.8c-2.4-0.8-3.7-3.4-2.9-5.7l9.2-28.4c0.8-2.4,3.4-3.7,5.7-2.9l14.8,4.8c2.4,0.8,3.7,3.4,2.9,5.7l-5.9,18.4"/>
<path fill="none" stroke="#00A99D" stroke-width="3" stroke-miterlimit="10" d="M477.9,52.9c-1-0.9-1.7-2.2-1.7-3.7
	c0-2.7,2.2-4.9,4.9-4.9s4.9,2.2,4.9,4.9c0,1.4-0.5,2.6-1.4,3.5"/>
<path fill="none" stroke="#00A99D" stroke-width="3" stroke-miterlimit="10" d="M484.6,52.7c-0.9,0.9-2.1,1.4-3.5,1.4
	c-1.2,0-2.4-0.5-3.2-1.2"/>
<path fill="none" stroke="#00A99D" stroke-width="3" stroke-miterlimit="10" d="M532.2,102.3l4.6-14.1c0.8-2.4,3.4-3.7,5.7-2.9
	l14.8,4.8c2.4,0.8,3.7,3.4,2.9,5.7l-6.8,21.2"/>
<path fill="none" stroke="#00A99D" stroke-width="3" stroke-miterlimit="10" d="M553.4,116.9l-2.3,7.2c-0.8,2.4-3.4,3.7-5.7,2.9
	l-14.8-4.8c-2.4-0.8-3.7-3.4-2.9-5.7l4.6-14.2"/>
<path fill="none" stroke="#00A99D" stroke-width="3" stroke-miterlimit="10" d="M562.6,105.9l2.8-8.7c0.8-2.4,3.4-3.7,5.7-2.9
	l14.8,4.8c2.4,0.8,3.7,3.4,2.9,5.7l-6.3,19.6"/>
<path fill="none" stroke="#00A99D" stroke-width="3" stroke-miterlimit="10" d="M582.5,124.4l-2.8,8.8c-0.8,2.4-3.4,3.7-5.7,2.9
	l-14.8-4.8c-2.4-0.8-3.7-3.4-2.9-5.7l6.4-19.7"/>
<g>
	<path fill="none" stroke="#00A99D" stroke-width="3" stroke-miterlimit="10" d="M384.4,121.3c0,25.2,20.4,45.6,45.6,45.6"/>
	<path fill="none" stroke="#00A99D" stroke-width="3" stroke-miterlimit="10" d="M350,121.3c0,44.3,35.8,80.1,80.1,80.1"/>
	<path fill="none" stroke="#00A99D" stroke-width="3" stroke-miterlimit="10" d="M409,121.3c0,11.7,9.4,21.1,21.1,21.1"/>
</g>
<path fill="none" stroke="#00A99D" stroke-width="3" stroke-miterlimit="10" d="M138.9,480.3c-0.7-0.7-1.2-1.7-1.2-2.8v-15.4
	c0-2.2,1.8-4,4-4h0c2.2,0,4,1.8,4,4v6.6"/>
<path fill="none" stroke="#00A99D" stroke-width="3" stroke-miterlimit="10" d="M145.7,467.6v9.9c0,2.2-1.8,4-4,4h0
	c-1.1,0-2.1-0.4-2.8-1.2"/>
<path fill="none" stroke="#00A99D" stroke-width="3" stroke-miterlimit="10" d="M152.4,514.5v25.9c0,0.9-0.8,1.7-1.7,1.7h-17.9
	c-0.9,0-1.7-0.8-1.7-1.7v-65.7c0-0.9,0.8-1.7,1.7-1.7h4.6"/>
<path fill="none" stroke="#00A99D" stroke-width="3" stroke-miterlimit="10" d="M146.4,473h4.3c0.9,0,1.7,0.8,1.7,1.7v39.8"/>
<path fill="none" stroke="#00A99D" stroke-width="3" stroke-miterlimit="10" d="M160.7,662.4c-1.5-1.1-2.5-3-2.5-5v-48
	c0-3.4,2.8-6.2,6.2-6.2h79.2c3.4,0,6.2,2.8,6.2,6.2v48c0,1.7-0.7,3.2-1.7,4.3"/>
<path fill="none" stroke="#00A99D" stroke-width="3" stroke-miterlimit="10" d="M183.7,662h63.4c3.1,0,5.6,2.5,5.6,5.6l0,0
	c0,3.1-2.5,5.6-5.6,5.6h-41.2"/>
<path fill="none" stroke="#00A99D" stroke-width="3" stroke-miterlimit="10" d="M205.9,673.2H161c-3.1,0-5.6-2.5-5.6-5.6l0,0
	c0-3.1,2.5-5.6,5.6-5.6h22.7"/>
<path fill="none" stroke="#00A99D" stroke-width="3" stroke-miterlimit="10" d="M208.6,626.6c2.3,1.7,3.8,4.5,3.8,7.6
	c0,3.1-1.5,5.8-3.7,7.5"/>
<path fill="none" stroke="#00A99D" stroke-width="3" stroke-miterlimit="10" d="M208.6,641.7c-1.6,1.2-3.6,2-5.8,2
	c-5.2,0-9.5-4.3-9.5-9.5s4.3-9.5,9.5-9.5c2.2,0,4.1,0.7,5.7,1.9"/>
<line fill="none" stroke="#00A99D" stroke-width="3" stroke-miterlimit="10" x1="496.2" y1="389.6" x2="493.6" y2="396.7"/>
<path fill="none" stroke="#00A99D" stroke-width="3" stroke-miterlimit="10" d="M488.6,391.6l2.1-5.9c0.6-1.7,2.5-2.5,4.1-1.9h0
	c1.7,0.6,2.5,2.5,1.9,4.1l-0.6,1.7"/>
<path fill="none" stroke="#00A99D" stroke-width="3" stroke-miterlimit="10" d="M459.5,410.3l5.4-14.9c2-5.5,8.2-8.4,13.7-6.4
	l8.9,3.2c5.5,2,8.4,8.2,6.4,13.7l-10.4,28.5c-2,5.5-8.2,8.4-13.7,6.4"/>
<path fill="none" stroke="#00A99D" stroke-width="3" stroke-miterlimit="10" d="M464,438.7l-3-1.1c-5.5-2-8.4-8.2-6.4-13.7l5-13.6"
	/>
<path fill="none" stroke="#00A99D" stroke-width="3" stroke-miterlimit="10" d="M469.8,440.8l-5.8-2.1"/>
<path fill="none" stroke="#00A99D" stroke-width="3" stroke-miterlimit="10" d="M474.9,415.1l-6.3-2.3c-1.4-0.5-2.1-2-1.6-3.4
	l3.7-10.1c0.5-1.4,2-2.1,3.4-1.6l11.7,4.3c1.4,0.5,2.1,2,1.6,3.4l-1.8,5"/>
<path fill="none" stroke="#00A99D" stroke-width="3" stroke-miterlimit="10" d="M485.6,410.5l-1.8,5.1c-0.5,1.4-2,2.1-3.4,1.6
	l-5.4-2"/>
<path fill="none" stroke="#00A99D" stroke-width="3" stroke-miterlimit="10" d="M471.7,567.6h37.6c4.5,0,8.1,3.6,8.1,8.1v27.6
	c0,4.5-3.6,8.1-8.1,8.1"/>
<path fill="none" stroke="#00A99D" stroke-width="3" stroke-miterlimit="10" d="M503.8,611.4h-48.5c-4.5,0-8.1-3.6-8.1-8.1v-27.6
	c0-4.5,3.6-8.1,8.1-8.1h16.4"/>
<path fill="none" stroke="#00A99D" stroke-width="3" stroke-miterlimit="10" d="M509.2,611.4h-5.4"/>
<polyline fill="none" stroke="#00A99D" stroke-width="3" stroke-miterlimit="10" points="447.2,581.5 482.3,589.5 517.3,581.5 "/>
<path fill="none" stroke="#00A99D" stroke-width="3" stroke-miterlimit="10" d="M196.2,230.4c-0.7,0.8-1.4,1.6-2.1,2.3
	c-2.3,2.2-3.7,5.2-3.7,8.5v12.3c0,5-4,9-9,9h-6.2c-5,0-9-4-9-9v-12c0-3.3-1.4-6.5-3.8-8.8c-4.4-4.2-7-10.3-6.8-16.9
	c0.3-11.5,9.3-21.1,20.7-22.1c13.4-1.2,24.8,9.4,24.8,22.6c0,3-0.6,5.9-1.7,8.5"/>
<line fill="none" stroke="#00A99D" stroke-width="3" stroke-miterlimit="10" x1="166" y1="247.5" x2="190" y2="247.5"/>
<line fill="none" stroke="#00A99D" stroke-width="3" stroke-miterlimit="10" x1="166" y1="253.5" x2="190" y2="253.5"/>
<path fill="none" stroke="#00A99D" stroke-width="3" stroke-linejoin="round" stroke-miterlimit="10" d="M165.8,215.2
	c0,0-0.2,10,6.6,12.8c4.5,1.9,5.9-5.5,5.9-5.5s0.5,5.8,5.6,5.5c1.6-0.1,4.4-2.8,4.8-4.4"/>
<line fill="none" stroke="#00A99D" stroke-width="3" stroke-miterlimit="10" x1="145.7" y1="210.7" x2="131" y2="205"/>
<line fill="none" stroke="#00A99D" stroke-width="3" stroke-miterlimit="10" x1="160.4" y1="193.2" x2="152.4" y2="181"/>
<line fill="none" stroke="#00A99D" stroke-width="3" stroke-miterlimit="10" x1="183.7" y1="187.1" x2="188.7" y2="173.6"/>
<line fill="none" stroke="#00A99D" stroke-width="3" stroke-miterlimit="10" x1="205.8" y1="201" x2="216" y2="193.6"/>
<path fill="none" stroke="#00A99D" stroke-width="3" stroke-miterlimit="10" d="M500,365.7c9.7,1.2,16.6,10.1,15.4,19.8"/>
<path fill="none" stroke="#00A99D" stroke-width="3" stroke-miterlimit="10" d="M508,352.7c14.1,1.8,24,14.6,22.2,28.7"/>
<path fill="none" stroke="#00A99D" stroke-width="3" stroke-miterlimit="10" d="M258,697.8v-11.6c0-3,2.4-5.4,5.4-5.4l0,0
	c3,0,5.4,2.4,5.4,5.4v6.9"/>
<path fill="none" stroke="#00A99D" stroke-width="3" stroke-miterlimit="10" d="M268.8,693v8.5c0,3-2.4,5.4-5.4,5.4l0,0
	c-3,0-5.4-2.4-5.4-5.4v-3.7"/>
<path fill="none" stroke="#00A99D" stroke-width="3" stroke-miterlimit="10" d="M308.3,692.8v-7.1c0-3,2.4-5.4,5.4-5.4l0,0
	c3,0,5.4,2.4,5.4,5.4v15.3c0,3-2.4,5.4-5.4,5.4"/>
<path fill="none" stroke="#00A99D" stroke-width="3" stroke-miterlimit="10" d="M263.2,710.5"/>
<path fill="none" stroke="#00A99D" stroke-width="3" stroke-miterlimit="10" d="M313,747"/>
<path fill="none" stroke="#00A99D" stroke-width="3" stroke-miterlimit="10" d="M313,708.8"/>
<path fill="none" stroke="#00A99D" stroke-width="3" stroke-miterlimit="10" d="M266,681.3c2.8-7.4,9.9-12.7,18.3-12.7h9.1
	c8.4,0,15.6,5.3,18.4,12.7"/>
<path fill="none" stroke="#00A99D" stroke-width="3" stroke-miterlimit="10" d="M274.7,687.3c0-2.7,2.2-4.8,4.9-4.8h-0.1
	c2.7,0,4.9,2.2,4.9,4.9"/>
<path fill="none" stroke="#00A99D" stroke-width="3" stroke-miterlimit="10" d="M291.7,687.3c0-2.7,2.2-4.8,4.9-4.8h-0.1
	c2.7,0,4.9,2.2,4.9,4.9"/>
<path fill="none" stroke="#00A99D" stroke-width="3" stroke-miterlimit="10" d="M287.7,701.1c0,2.6-3,4.7-6.7,4.7"/>
<path fill="none" stroke="#00A99D" stroke-width="3" stroke-miterlimit="10" d="M288,701.1c0,2.6,3,4.7,6.7,4.7"/>
<path fill="none" stroke="#00A99D" stroke-width="3" stroke-miterlimit="10" d="M288.6,693.7l3.2,0.1c1.3,0,2,1.5,1.1,2.5l-1.7,2"/>
<path fill="none" stroke="#00A99D" stroke-width="3" stroke-miterlimit="10" d="M291.3,698.3l-2.4,2.8c-0.6,0.7-1.7,0.7-2.4,0
	l-4.2-5c-0.8-1-0.1-2.5,1.2-2.5l5.1,0.1"/>
<path fill="none" stroke="#00A99D" stroke-width="3" stroke-miterlimit="10" d="M280,718.7c0,12.3-3.3,22.3-7.3,22.3"/>
<path fill="none" stroke="#00A99D" stroke-width="3" stroke-miterlimit="10" d="M297.7,718.7c0,12.3,3.3,22.3,7.3,22.3"/>
<path fill="none" stroke="#00A99D" stroke-width="3" stroke-miterlimit="10" d="M469.5,444v45c0,6.9-5.6,12.5-12.5,12.5h-28"/>
<path fill="none" stroke="#00A99D" stroke-width="3" stroke-miterlimit="10" d="M179.5,676v53.6c0,7.1,5.8,12.9,12.9,12.9H260"/>
<path fill="none" stroke="#00A99D" stroke-width="3" stroke-miterlimit="10" d="M263.5,707v40.5H314l-0.4-41h0.1
	c-3,0-5.3-2.4-5.3-5.4V693"/>
<line fill="none" stroke="#00A99D" stroke-width="3" stroke-miterlimit="10" x1="352" y1="675.5" x2="416" y2="675.5"/>
<line fill="none" stroke="#00A99D" stroke-width="3" stroke-miterlimit="10" x1="352" y1="683.5" x2="416" y2="683.5"/>
</svg>
